<svg xmlns="http://www.w3.org/2000/svg" version="1.1" xmlns:xlink="http://www.w3.org/1999/xlink" xmlns:svgjs="http://svgjs.dev/svgjs" width="1000" height="750" viewBox="0 0 1000 750"><rect width="1000" height="750" fill="#ffffff"></rect><g transform="matrix(0.834,0,0,0.834,83.08895999999999,216.04794932812248)"><svg viewBox="0 0 375 143" data-background-color="#ffffff" preserveAspectRatio="xMidYMid meet" height="381" width="1000" xmlns="http://www.w3.org/2000/svg" xmlns:xlink="http://www.w3.org/1999/xlink"><g id="tight-bounds" transform="matrix(1,0,0,1,-0.03976036071776434,0.03377532958984375)"><svg viewBox="0 0 375.07952880859375 142.9324493408203" height="142.9324493408203" width="375.07952880859375"><g><svg></svg></g><g><svg viewBox="0 0 375.07952880859375 142.9324493408203" height="142.9324493408203" width="375.07952880859375"><g transform="matrix(1,0,0,1,-10.220239639282227,-55.79585266113281)"><path xmlns="http://www.w3.org/2000/svg" d="M10.22 191.404v-135.608h375.08v135.608h-19.528v-3.268h16.259v-129.072h-368.542v129.072l27.104 0 0 3.268z" fill="#202046" fill-rule="nonzero" stroke="none" stroke-width="1" stroke-linecap="butt" stroke-linejoin="miter" stroke-miterlimit="10" stroke-dasharray="" stroke-dashoffset="0" font-family="none" font-weight="none" font-size="none" text-anchor="none" style="mix-blend-mode: normal" data-fill-palette-color="tertiary"></path><g><path xmlns="http://www.w3.org/2000/svg" d="M54.316 198.728c0.81 0 1.602-0.173 2.374-0.519 0.772-0.346 1.399-0.799 1.881-1.358 0.479-0.559 0.719-1.146 0.719-1.761v0c0-0.757-0.28-1.309-0.839-1.655-0.559-0.349-1.279-0.524-2.161-0.523v0h-1.473c-0.781 0-1.307-0.067-1.579-0.2-0.269-0.133-0.404-0.325-0.404-0.577v0c0-0.26 0.18-0.578 0.541-0.954v0c0.086 0.021 0.223 0.044 0.413 0.071 0.186 0.024 0.374 0.035 0.563 0.036v0c0.562 0 1.127-0.135 1.695-0.404 0.565-0.272 1.034-0.654 1.407-1.145 0.373-0.491 0.559-1.05 0.559-1.677v0c0-0.246-0.04-0.51-0.12-0.794-0.08-0.281-0.163-0.519-0.248-0.715v0-0.181l1.331 0.43h0.173l0.421-1.202-0.213-0.249c-0.225 0.024-0.598 0.055-1.118 0.093-0.521 0.038-0.924 0.065-1.211 0.08v0c-0.63-0.456-1.389-0.683-2.276-0.683v0c-0.6 0-1.18 0.154-1.739 0.461-0.559 0.308-1.012 0.717-1.358 1.229-0.346 0.515-0.519 1.06-0.519 1.637v0c0 0.447 0.102 0.873 0.306 1.278 0.207 0.405 0.451 0.739 0.732 1.003 0.281 0.263 0.524 0.42 0.728 0.47v0 0.076c-0.269 0.109-0.546 0.269-0.83 0.479-0.287 0.207-0.522 0.429-0.706 0.665-0.183 0.234-0.275 0.445-0.275 0.635v0c0 0.311 0.09 0.595 0.271 0.852 0.18 0.26 0.436 0.47 0.768 0.63v0 0.098c-1.154 0.657-1.73 1.307-1.731 1.952v0c0 0.858 0.37 1.476 1.109 1.854 0.739 0.379 1.676 0.568 2.809 0.568zM54.489 185.635c0.364 0 0.677 0.133 0.941 0.399 0.263 0.266 0.464 0.602 0.603 1.008 0.142 0.405 0.213 0.813 0.213 1.224v0c0 0.737-0.139 1.282-0.417 1.637-0.278 0.352-0.67 0.528-1.176 0.528v0c-0.275 0-0.552-0.105-0.83-0.315-0.278-0.207-0.507-0.498-0.687-0.874-0.18-0.376-0.271-0.802-0.271-1.278v0c0-0.731 0.136-1.301 0.408-1.712 0.269-0.411 0.674-0.617 1.216-0.617zM52.865 194.518h1.886c0.701 0 1.239 0.027 1.615 0.08 0.376 0.053 0.652 0.16 0.83 0.319 0.175 0.16 0.262 0.398 0.261 0.714v0c0 0.671-0.232 1.162-0.696 1.473-0.467 0.311-1.087 0.466-1.859 0.466v0c-1.733 0-2.6-0.617-2.6-1.85v0c0-0.296 0.041-0.532 0.124-0.71 0.083-0.177 0.177-0.309 0.284-0.395 0.104-0.089 0.155-0.121 0.155-0.097zM66.455 194.873c0.707 0 1.37-0.127 1.988-0.382 0.615-0.257 1.14-0.614 1.575-1.069v0l-0.226-0.573c-0.355 0.186-0.666 0.322-0.932 0.409-0.269 0.089-0.504 0.142-0.705 0.159-0.201 0.018-0.476 0.027-0.826 0.027v0c-0.633 0-1.173-0.182-1.619-0.546-0.444-0.367-0.781-0.834-1.012-1.402-0.231-0.571-0.361-1.16-0.39-1.766v0l5.244-0.066c0.044-0.189 0.084-0.429 0.12-0.719 0.035-0.293 0.053-0.522 0.053-0.688v0c0-0.737-0.129-1.364-0.386-1.881-0.254-0.518-0.602-0.908-1.042-1.171-0.441-0.263-0.929-0.395-1.465-0.395v0c-0.722 0-1.426 0.206-2.112 0.616-0.686 0.411-1.248 1.004-1.686 1.78-0.435 0.772-0.652 1.674-0.652 2.706v0c0 1.047 0.191 1.946 0.573 2.698 0.385 0.751 0.889 1.316 1.513 1.695 0.624 0.379 1.287 0.568 1.987 0.568zM66.304 185.87c0.994 0 1.491 0.673 1.491 2.019v0c0 0.106-0.004 0.238-0.013 0.395-0.012 0.154-0.028 0.271-0.049 0.35v0l-3.403 0.249c0.035-0.663 0.154-1.22 0.355-1.673 0.198-0.453 0.441-0.788 0.728-1.007 0.29-0.222 0.587-0.333 0.891-0.333zM74.202 186.283l-0.044 5.448c-0.006 1.127 0.195 1.92 0.603 2.379 0.408 0.458 0.976 0.688 1.704 0.687v0c0.609 0 1.165-0.141 1.668-0.421 0.506-0.281 0.929-0.671 1.269-1.172v0l-0.226-0.585c0 0.009-0.086 0.067-0.257 0.173-0.169 0.109-0.368 0.21-0.599 0.301-0.231 0.089-0.466 0.133-0.706 0.134v0c-0.382 0-0.688-0.065-0.918-0.196-0.231-0.13-0.401-0.351-0.511-0.661-0.109-0.311-0.164-0.737-0.164-1.278v0l0.036-4.787h2.99l0.098-0.954h-3.066v-2.578h-0.577c-0.39 0.535-0.824 1.066-1.3 1.593-0.476 0.527-0.935 0.97-1.375 1.331v0 0.586zM89.549 194.811c0.781 0 1.418-0.179 1.913-0.537 0.494-0.358 0.846-0.739 1.056-1.145v0h0.119v0.164c0 0.237 0.056 0.466 0.169 0.688 0.112 0.219 0.294 0.401 0.546 0.546 0.254 0.145 0.575 0.217 0.963 0.217v0c0.305 0 0.63-0.04 0.976-0.12v0c0.225-0.044 0.39-0.072 0.497-0.084v0l0.142-0.932-0.542-0.097c-0.34-0.059-0.595-0.138-0.763-0.236-0.169-0.098-0.285-0.238-0.35-0.421-0.065-0.183-0.098-0.45-0.098-0.799v0-3.931c0-1.154-0.209-1.997-0.626-2.529-0.414-0.529-1.097-0.794-2.049-0.794v0c-0.506 0-1.052 0.105-1.638 0.315-0.586 0.207-1.077 0.482-1.473 0.825-0.396 0.343-0.595 0.703-0.594 1.078v0c0 0.47 0.143 0.773 0.43 0.91 0.29 0.139 0.648 0.209 1.074 0.208v0c0.065-0.731 0.121-1.233 0.168-1.508 0.047-0.272 0.146-0.478 0.298-0.617 0.151-0.136 0.396-0.204 0.736-0.204v0c0.686 0 1.177 0.272 1.473 0.816 0.296 0.544 0.444 1.236 0.444 2.077v0 0.594c-1.127 0.08-2.063 0.287-2.809 0.622-0.748 0.337-1.3 0.751-1.654 1.242-0.352 0.491-0.528 1.015-0.528 1.571v0c0 0.426 0.095 0.796 0.283 1.109 0.192 0.314 0.451 0.553 0.777 0.719 0.325 0.169 0.679 0.253 1.06 0.253zM92.42 189.912v2.6c-0.216 0.24-0.497 0.46-0.843 0.661-0.349 0.201-0.697 0.302-1.043 0.302v0c-0.251 0-0.469-0.065-0.652-0.195-0.186-0.13-0.325-0.293-0.417-0.488-0.095-0.192-0.142-0.383-0.142-0.573v0c0-0.556 0.235-1.023 0.706-1.402 0.467-0.379 1.265-0.68 2.391-0.905zM98.046 194.549h5.178l0.129-0.865-1.722-0.391v-12.556l-0.271-0.258-3.119 0.236-0.128 0.825 1.712 0.585v11.168l-1.659 0.399zM105.602 194.549h5.178l0.129-0.865-1.722-0.391v-12.556l-0.271-0.258-3.119 0.236-0.133 0.825 1.713 0.585v11.168l-1.655 0.399zM120.057 186.283l-0.04 5.448c-0.009 1.127 0.191 1.92 0.599 2.379 0.408 0.458 0.978 0.688 1.709 0.687v0c0.606 0 1.162-0.141 1.668-0.421 0.506-0.281 0.927-0.671 1.264-1.172v0l-0.226-0.585c0 0.009-0.084 0.067-0.253 0.173-0.172 0.109-0.373 0.21-0.603 0.301-0.231 0.089-0.466 0.133-0.706 0.134v0c-0.382 0-0.688-0.065-0.918-0.196-0.231-0.13-0.401-0.351-0.51-0.661-0.106-0.311-0.16-0.737-0.16-1.278v0l0.031-4.787h2.991l0.097-0.954h-3.066v-2.578h-0.577c-0.387 0.535-0.821 1.066-1.3 1.593-0.476 0.527-0.935 0.97-1.375 1.331v0 0.586zM132.587 194.549l0.129-0.865-1.584-0.391v-6.056c0.349-0.361 0.697-0.612 1.043-0.755 0.346-0.139 0.697-0.209 1.051-0.208v0c0.506 0 0.942 0.157 1.309 0.47 0.37 0.314 0.555 0.821 0.555 1.522v0 5.049l-1.496 0.431-0.133 0.803h4.868l0.128-0.857-1.57-0.377v-5.253c0-1.228-0.229-2.078-0.688-2.551-0.458-0.473-1.106-0.71-1.944-0.71v0c-1.106 0-2.168 0.563-3.185 1.69v0h-0.111l0.173-1.149v-4.605l-0.271-0.258-3.128 0.236-0.128 0.825 1.73 0.585v11.168l-1.668 0.399-0.12 0.857zM145.263 194.873c0.707 0 1.37-0.127 1.988-0.382 0.618-0.257 1.143-0.614 1.575-1.069v0l-0.226-0.573c-0.355 0.186-0.666 0.322-0.932 0.409-0.266 0.089-0.501 0.142-0.705 0.159-0.201 0.018-0.475 0.027-0.821 0.027v0c-0.636 0-1.176-0.182-1.62-0.546-0.444-0.367-0.782-0.834-1.016-1.402-0.231-0.571-0.359-1.16-0.386-1.766v0l5.24-0.066c0.044-0.189 0.084-0.429 0.12-0.719 0.035-0.293 0.053-0.522 0.053-0.688v0c0-0.737-0.127-1.364-0.381-1.881-0.257-0.518-0.606-0.908-1.047-1.171-0.441-0.263-0.929-0.395-1.464-0.395v0c-0.722 0-1.426 0.206-2.112 0.616-0.686 0.411-1.247 1.004-1.682 1.78-0.438 0.772-0.657 1.674-0.657 2.706v0c0 1.047 0.191 1.946 0.573 2.698 0.385 0.751 0.889 1.316 1.513 1.695 0.624 0.379 1.287 0.568 1.987 0.568zM145.113 185.87c0.997 0 1.495 0.673 1.495 2.019v0c0 0.106-0.006 0.238-0.018 0.395-0.012 0.154-0.028 0.271-0.049 0.35v0l-3.403 0.249c0.038-0.663 0.157-1.22 0.355-1.673 0.198-0.453 0.442-0.788 0.732-1.007 0.287-0.222 0.583-0.333 0.888-0.333zM158.348 186.283l-0.045 5.448c-0.009 1.127 0.191 1.92 0.599 2.379 0.408 0.458 0.978 0.688 1.709 0.687v0c0.606 0 1.162-0.141 1.668-0.421 0.506-0.281 0.929-0.671 1.269-1.172v0l-0.231-0.585c0 0.009-0.084 0.067-0.253 0.173-0.169 0.109-0.37 0.21-0.603 0.301-0.231 0.089-0.464 0.133-0.701 0.134v0c-0.385 0-0.692-0.065-0.923-0.196-0.231-0.13-0.401-0.351-0.51-0.661-0.106-0.311-0.16-0.737-0.16-1.278v0l0.031-4.787h2.99l0.098-0.954h-3.066v-2.578h-0.572c-0.39 0.535-0.824 1.066-1.3 1.593-0.476 0.527-0.935 0.97-1.376 1.331v0 0.586zM172.138 194.549l0.111-0.941-2.525-0.368v-4.149c0.071-0.515 0.213-0.948 0.426-1.3 0.216-0.355 0.453-0.621 0.71-0.798 0.26-0.177 0.5-0.266 0.719-0.266v0c0.207 0 0.426 0.038 0.656 0.115 0.234 0.077 0.454 0.18 0.661 0.31v0c0.414-0.349 0.621-0.75 0.622-1.202v0c0-0.325-0.112-0.609-0.338-0.852-0.225-0.243-0.513-0.364-0.865-0.364v0c-0.325 0-0.655 0.111-0.989 0.333-0.331 0.219-0.645 0.549-0.941 0.99-0.296 0.441-0.538 0.975-0.728 1.601v0h-0.204l0.218-2.489-0.249-0.262-3.11 0.4-0.151 0.825 1.766 0.532v6.651l-1.659 0.431-0.107 0.803zM178.349 194.811c0.781 0 1.418-0.179 1.913-0.537 0.494-0.358 0.846-0.739 1.056-1.145v0h0.119v0.164c0 0.237 0.056 0.466 0.169 0.688 0.112 0.219 0.294 0.401 0.546 0.546 0.254 0.145 0.577 0.217 0.967 0.217v0c0.302 0 0.626-0.04 0.972-0.12v0c0.225-0.044 0.392-0.072 0.501-0.084v0l0.138-0.932-0.542-0.097c-0.337-0.059-0.592-0.138-0.763-0.236-0.169-0.098-0.285-0.238-0.35-0.421-0.065-0.183-0.098-0.45-0.098-0.799v0-3.931c0-1.154-0.209-1.997-0.626-2.529-0.414-0.529-1.097-0.794-2.049-0.794v0c-0.506 0-1.052 0.105-1.638 0.315-0.586 0.207-1.077 0.482-1.473 0.825-0.396 0.343-0.595 0.703-0.594 1.078v0c0 0.47 0.143 0.773 0.43 0.91 0.29 0.139 0.648 0.209 1.074 0.208v0c0.065-0.731 0.121-1.233 0.168-1.508 0.047-0.272 0.146-0.478 0.298-0.617 0.151-0.136 0.396-0.204 0.736-0.204v0c0.686 0 1.177 0.272 1.473 0.816 0.296 0.544 0.444 1.236 0.444 2.077v0 0.594c-1.127 0.08-2.063 0.287-2.809 0.622-0.748 0.337-1.3 0.751-1.654 1.242-0.352 0.491-0.528 1.015-0.528 1.571v0c0 0.426 0.096 0.796 0.288 1.109 0.189 0.314 0.447 0.553 0.772 0.719 0.325 0.169 0.679 0.253 1.06 0.253zM181.22 189.912v2.6c-0.216 0.24-0.497 0.46-0.843 0.661-0.346 0.201-0.692 0.302-1.038 0.302v0c-0.254 0-0.473-0.065-0.657-0.195-0.183-0.13-0.322-0.293-0.417-0.488-0.095-0.192-0.142-0.383-0.142-0.573v0c0-0.556 0.235-1.023 0.706-1.402 0.467-0.379 1.265-0.68 2.391-0.905zM189.717 182.96c0.231 0 0.45-0.061 0.656-0.182 0.207-0.118 0.37-0.278 0.488-0.48 0.118-0.204 0.177-0.424 0.178-0.661v0c0-0.346-0.13-0.639-0.391-0.878-0.26-0.237-0.571-0.355-0.931-0.355v0c-0.346 0-0.648 0.117-0.905 0.35-0.254 0.234-0.382 0.521-0.382 0.861v0c0 0.24 0.058 0.461 0.173 0.666 0.115 0.207 0.272 0.371 0.47 0.492 0.198 0.124 0.413 0.186 0.644 0.187zM187.139 194.549h5.2l0.12-0.865-1.735-0.391v-8.062l-0.271-0.27-3.044 0.253-0.137 0.82 1.633 0.595v6.664l-1.633 0.399zM194.717 194.549h5.178l0.129-0.865-1.722-0.391v-12.556l-0.271-0.258-3.119 0.236-0.133 0.825 1.713 0.585v11.168l-1.655 0.399zM206.808 194.873c0.71 0 1.372-0.127 1.987-0.382 0.618-0.257 1.145-0.614 1.58-1.069v0l-0.231-0.573c-0.352 0.186-0.663 0.322-0.932 0.409-0.266 0.089-0.5 0.142-0.701 0.159-0.204 0.018-0.479 0.027-0.825 0.027v0c-0.636 0-1.176-0.182-1.619-0.546-0.444-0.367-0.781-0.834-1.012-1.402-0.231-0.571-0.361-1.16-0.39-1.766v0l5.244-0.066c0.041-0.189 0.08-0.429 0.115-0.719 0.038-0.293 0.058-0.522 0.058-0.688v0c0-0.737-0.129-1.364-0.386-1.881-0.257-0.518-0.606-0.908-1.047-1.171-0.441-0.263-0.927-0.395-1.46-0.395v0c-0.722 0-1.426 0.206-2.112 0.616-0.686 0.411-1.248 1.004-1.686 1.78-0.438 0.772-0.657 1.674-0.656 2.706v0c0 1.047 0.192 1.946 0.576 2.698 0.382 0.751 0.884 1.316 1.509 1.695 0.624 0.379 1.287 0.568 1.988 0.568zM206.657 185.87c0.997 0 1.495 0.673 1.495 2.019v0c0 0.106-0.006 0.238-0.018 0.395-0.009 0.154-0.025 0.271-0.049 0.35v0l-3.398 0.249c0.035-0.663 0.152-1.22 0.35-1.673 0.198-0.453 0.442-0.788 0.732-1.007 0.29-0.222 0.586-0.333 0.888-0.333zM219.293 194.549l0.107-0.941-2.525-0.368v-4.149c0.074-0.515 0.217-0.948 0.43-1.3 0.213-0.355 0.45-0.621 0.71-0.798 0.26-0.177 0.498-0.266 0.715-0.266v0c0.21 0 0.43 0.038 0.661 0.115 0.231 0.077 0.451 0.18 0.661 0.31v0c0.411-0.349 0.617-0.75 0.616-1.202v0c0-0.325-0.112-0.609-0.337-0.852-0.225-0.243-0.513-0.364-0.865-0.364v0c-0.325 0-0.654 0.111-0.985 0.333-0.334 0.219-0.649 0.549-0.945 0.99-0.296 0.441-0.537 0.975-0.723 1.601v0h-0.209l0.218-2.489-0.249-0.262-3.11 0.4-0.151 0.825 1.766 0.532v6.651l-1.659 0.431-0.107 0.803zM226.552 194.917c0.556 0 1.093-0.12 1.61-0.359 0.515-0.237 0.932-0.566 1.252-0.99 0.317-0.423 0.475-0.89 0.474-1.402v0c0-0.485-0.126-0.913-0.377-1.282-0.254-0.373-0.559-0.686-0.914-0.941-0.358-0.251-0.827-0.535-1.406-0.852v0c-0.476-0.269-0.847-0.494-1.114-0.674-0.266-0.18-0.49-0.387-0.67-0.621-0.18-0.237-0.271-0.498-0.271-0.786v0c0-0.361 0.109-0.668 0.329-0.922 0.219-0.251 0.513-0.377 0.883-0.378v0c0.42 0 0.773 0.204 1.06 0.613 0.29 0.408 0.5 1.023 0.63 1.845v0c0.47-0.03 0.84-0.175 1.109-0.434 0.272-0.26 0.408-0.596 0.409-1.008v0c0-0.361-0.111-0.688-0.333-0.98-0.219-0.293-0.531-0.524-0.936-0.692-0.405-0.169-0.867-0.253-1.385-0.253v0c-0.686 0-1.273 0.146-1.761 0.439-0.488 0.29-0.855 0.655-1.101 1.096-0.246 0.441-0.368 0.886-0.368 1.336v0c0 0.518 0.132 0.976 0.395 1.375 0.263 0.396 0.581 0.731 0.954 1.003 0.373 0.269 0.855 0.574 1.446 0.914v0c0.432 0.246 0.769 0.45 1.012 0.612 0.243 0.163 0.444 0.343 0.603 0.541 0.157 0.198 0.235 0.413 0.236 0.644v0c0 0.376-0.133 0.652-0.4 0.829-0.266 0.177-0.609 0.266-1.029 0.267v0c-0.447 0-0.858-0.179-1.233-0.537-0.376-0.358-0.683-0.89-0.923-1.598v0c-0.402 0.03-0.723 0.188-0.963 0.475-0.24 0.29-0.359 0.637-0.36 1.043v0c0 0.287 0.13 0.561 0.391 0.821 0.26 0.26 0.629 0.469 1.105 0.625 0.476 0.154 1.025 0.231 1.646 0.231zM240.763 182.96c0.231 0 0.45-0.061 0.657-0.182 0.204-0.118 0.367-0.278 0.488-0.48 0.118-0.204 0.177-0.424 0.177-0.661v0c0-0.346-0.13-0.639-0.39-0.878-0.26-0.237-0.571-0.355-0.932-0.355v0c-0.346 0-0.648 0.117-0.905 0.35-0.257 0.234-0.386 0.521-0.386 0.861v0c0 0.24 0.058 0.461 0.173 0.666 0.118 0.207 0.277 0.371 0.475 0.492 0.198 0.124 0.413 0.186 0.643 0.187zM238.185 194.549h5.2l0.12-0.865-1.735-0.391v-8.062l-0.27-0.27-3.044 0.253-0.142 0.82 1.637 0.595v6.664l-1.637 0.399zM251.079 194.549l0.151-0.857-1.611-0.377v-6.078c0.266-0.296 0.587-0.525 0.963-0.688 0.376-0.163 0.765-0.244 1.167-0.244v0c0.571 0 1.028 0.164 1.371 0.492 0.343 0.328 0.515 0.828 0.515 1.5v0 5.018l-1.496 0.444-0.106 0.79h4.863l0.111-0.857-1.562-0.377v-5.439c0-0.973-0.223-1.727-0.67-2.263-0.45-0.535-1.096-0.803-1.939-0.803v0c-0.636 0-1.236 0.163-1.801 0.488-0.562 0.325-1.049 0.734-1.46 1.224v0h-0.111l0.186-1.388-0.186-0.204-3.226 0.421-0.111 0.825 1.669 0.564v6.575l-1.633 0.444-0.111 0.79zM269.514 194.842c0.837 0 1.602-0.213 2.294-0.639 0.695-0.426 1.242-1.025 1.642-1.797 0.402-0.775 0.603-1.653 0.603-2.636v0c0-0.988-0.172-1.859-0.515-2.613-0.343-0.754-0.839-1.341-1.486-1.762-0.645-0.42-1.405-0.63-2.28-0.63v0c-0.822 0-1.593 0.207-2.312 0.622-0.719 0.411-1.299 1.009-1.739 1.792-0.441 0.784-0.661 1.702-0.661 2.755v0c0 0.938 0.176 1.778 0.528 2.521 0.349 0.739 0.858 1.322 1.526 1.748 0.668 0.426 1.469 0.639 2.4 0.639zM269.319 185.906c0.642 0 1.174 0.237 1.597 0.71 0.423 0.473 0.729 1.071 0.919 1.792 0.192 0.722 0.288 1.473 0.288 2.254v0c0 0.532-0.083 1.037-0.248 1.513-0.166 0.476-0.419 0.865-0.759 1.167-0.34 0.299-0.751 0.448-1.234 0.448v0c-0.671 0-1.225-0.22-1.659-0.661-0.432-0.441-0.745-1.012-0.941-1.713-0.195-0.698-0.293-1.448-0.292-2.249v0c0-0.595 0.083-1.139 0.248-1.633 0.166-0.494 0.424-0.889 0.777-1.185 0.349-0.296 0.784-0.444 1.304-0.443zM282.071 194.549l0.15-0.857-1.61-0.377v-6.078c0.266-0.296 0.587-0.525 0.963-0.688 0.376-0.163 0.766-0.244 1.171-0.244v0c0.571 0 1.028 0.164 1.371 0.492 0.34 0.328 0.51 0.828 0.51 1.5v0 5.018l-1.491 0.444-0.11 0.79h4.862l0.111-0.857-1.561-0.377v-5.439c0-0.973-0.223-1.727-0.67-2.263-0.45-0.535-1.096-0.803-1.939-0.803v0c-0.636 0-1.235 0.163-1.797 0.488-0.565 0.325-1.053 0.734-1.464 1.224v0h-0.107l0.182-1.388-0.182-0.204-3.23 0.421-0.107 0.825 1.669 0.564v6.575l-1.637 0.444-0.107 0.79zM294.805 194.873c0.707 0 1.37-0.127 1.987-0.382 0.618-0.257 1.143-0.614 1.575-1.069v0l-0.226-0.573c-0.355 0.186-0.666 0.322-0.932 0.409-0.266 0.089-0.501 0.142-0.705 0.159-0.201 0.018-0.475 0.027-0.821 0.027v0c-0.636 0-1.176-0.182-1.619-0.546-0.444-0.367-0.782-0.834-1.016-1.402-0.231-0.571-0.361-1.16-0.391-1.766v0l5.244-0.066c0.044-0.189 0.084-0.429 0.12-0.719 0.035-0.293 0.053-0.522 0.054-0.688v0c0-0.737-0.127-1.364-0.382-1.881-0.257-0.518-0.606-0.908-1.047-1.171-0.441-0.263-0.929-0.395-1.464-0.395v0c-0.722 0-1.426 0.206-2.112 0.616-0.686 0.411-1.247 1.004-1.682 1.78-0.438 0.772-0.657 1.674-0.657 2.706v0c0 1.047 0.191 1.946 0.573 2.698 0.385 0.751 0.889 1.316 1.513 1.695 0.624 0.379 1.287 0.568 1.988 0.568zM294.654 185.87c0.997 0 1.495 0.673 1.495 2.019v0c0 0.106-0.006 0.238-0.018 0.395-0.012 0.154-0.028 0.271-0.049 0.35v0l-3.403 0.249c0.038-0.663 0.157-1.22 0.355-1.673 0.198-0.453 0.442-0.788 0.732-1.007 0.287-0.222 0.583-0.333 0.888-0.333zM311.399 198.577l0.128-0.865-1.69-0.381v-9.997c0.29-0.305 0.627-0.565 1.011-0.781 0.387-0.216 0.79-0.324 1.207-0.323v0c0.686 0 1.204 0.33 1.553 0.989 0.346 0.663 0.519 1.64 0.519 2.933v0c0 1.047-0.195 1.881-0.585 2.502-0.39 0.621-0.95 0.932-1.678 0.932v0c-0.429 0-0.751-0.016-0.967-0.049-0.216-0.033-0.447-0.096-0.692-0.191v0l0.067 1.309c0.361 0.065 0.7 0.098 1.016 0.098v0c0.917 0 1.742-0.223 2.475-0.67 0.734-0.447 1.307-1.071 1.722-1.872 0.417-0.802 0.626-1.708 0.625-2.72v0c0-1.062-0.142-1.942-0.425-2.64-0.281-0.695-0.667-1.21-1.158-1.544-0.491-0.331-1.057-0.497-1.7-0.497v0c-0.636 0-1.207 0.177-1.712 0.532-0.506 0.352-0.932 0.771-1.278 1.256v0h-0.076l0.151-1.398-0.226-0.204-3.155 0.399-0.128 0.835 1.668 0.497v10.595l-1.655 0.412-0.067 0.843zM318.83 194.549h5.178l0.133-0.865-1.726-0.391v-12.556l-0.27-0.258-3.119 0.236-0.129 0.825 1.713 0.585v11.168l-1.66 0.399zM328.911 194.811c0.778 0 1.415-0.179 1.912-0.537 0.494-0.358 0.846-0.739 1.056-1.145v0h0.12v0.164c0 0.237 0.055 0.466 0.164 0.688 0.112 0.219 0.296 0.401 0.55 0.546 0.251 0.145 0.572 0.217 0.963 0.217v0c0.302 0 0.627-0.04 0.976-0.12v0c0.222-0.044 0.387-0.072 0.497-0.084v0l0.142-0.932-0.541-0.097c-0.34-0.059-0.595-0.138-0.763-0.236-0.172-0.098-0.29-0.238-0.355-0.421-0.065-0.183-0.098-0.45-0.098-0.799v0-3.931c0-1.154-0.207-1.997-0.621-2.529-0.417-0.529-1.102-0.794-2.054-0.794v0c-0.506 0-1.05 0.105-1.633 0.315-0.586 0.207-1.077 0.482-1.473 0.825-0.399 0.343-0.599 0.703-0.599 1.078v0c0 0.47 0.145 0.773 0.435 0.91 0.29 0.139 0.648 0.209 1.073 0.208v0c0.065-0.731 0.12-1.233 0.165-1.508 0.047-0.272 0.148-0.478 0.301-0.617 0.151-0.136 0.396-0.204 0.737-0.204v0c0.686 0 1.177 0.272 1.473 0.816 0.296 0.544 0.444 1.236 0.444 2.077v0 0.594c-1.127 0.08-2.065 0.287-2.813 0.622-0.748 0.337-1.299 0.751-1.651 1.242-0.355 0.491-0.532 1.015-0.532 1.571v0c0 0.426 0.096 0.796 0.288 1.109 0.192 0.314 0.45 0.553 0.772 0.719 0.325 0.169 0.68 0.253 1.065 0.253zM331.782 189.912v2.6c-0.219 0.24-0.501 0.46-0.848 0.661-0.346 0.201-0.692 0.302-1.038 0.302v0c-0.254 0-0.473-0.065-0.657-0.195-0.183-0.13-0.322-0.293-0.417-0.488-0.095-0.192-0.142-0.383-0.142-0.573v0c0-0.556 0.235-1.023 0.706-1.402 0.47-0.379 1.269-0.68 2.396-0.905zM342.12 194.873c0.671 0 1.322-0.132 1.952-0.395 0.633-0.263 1.102-0.575 1.406-0.936v0l-0.27-0.63c-0.325 0.21-0.651 0.373-0.976 0.488-0.325 0.115-0.731 0.173-1.216 0.173v0c-0.698 0-1.29-0.238-1.775-0.715-0.485-0.476-0.846-1.065-1.083-1.766-0.24-0.701-0.359-1.38-0.359-2.036v0c0-0.651 0.089-1.219 0.266-1.704 0.177-0.488 0.427-0.865 0.75-1.131 0.319-0.269 0.692-0.404 1.118-0.404v0c0.42 0 0.762 0.169 1.025 0.506 0.263 0.334 0.503 0.759 0.719 1.273v0c0.441-0.03 0.781-0.146 1.02-0.35 0.237-0.201 0.355-0.464 0.355-0.79v0c0-0.296-0.095-0.569-0.284-0.821-0.192-0.254-0.484-0.457-0.874-0.608-0.39-0.151-0.874-0.226-1.451-0.226v0c-0.796 0-1.546 0.217-2.249 0.652-0.704 0.438-1.272 1.056-1.704 1.855-0.435 0.799-0.652 1.714-0.652 2.746v0c0 0.867 0.177 1.668 0.532 2.405 0.355 0.737 0.856 1.324 1.504 1.761 0.651 0.435 1.399 0.652 2.246 0.653zM352.404 194.873c0.707 0 1.37-0.127 1.988-0.382 0.615-0.257 1.14-0.614 1.575-1.069v0l-0.226-0.573c-0.355 0.186-0.666 0.322-0.932 0.409-0.269 0.089-0.504 0.142-0.705 0.159-0.201 0.018-0.476 0.027-0.826 0.027v0c-0.636 0-1.176-0.182-1.619-0.546-0.444-0.367-0.781-0.834-1.012-1.402-0.231-0.571-0.361-1.16-0.39-1.766v0l5.244-0.066c0.041-0.189 0.081-0.429 0.12-0.719 0.035-0.293 0.053-0.522 0.053-0.688v0c0-0.737-0.129-1.364-0.386-1.881-0.254-0.518-0.602-0.908-1.042-1.171-0.441-0.263-0.929-0.395-1.465-0.395v0c-0.722 0-1.426 0.206-2.112 0.616-0.686 0.411-1.248 1.004-1.686 1.78-0.435 0.772-0.652 1.674-0.652 2.706v0c0 1.047 0.191 1.946 0.573 2.698 0.382 0.751 0.886 1.316 1.513 1.695 0.624 0.379 1.287 0.568 1.987 0.568zM352.249 185.87c0.997 0 1.495 0.673 1.495 2.019v0c0 0.106-0.004 0.238-0.013 0.395-0.012 0.154-0.028 0.271-0.049 0.35v0l-3.403 0.249c0.035-0.663 0.152-1.22 0.351-1.673 0.201-0.453 0.445-0.788 0.732-1.007 0.29-0.222 0.586-0.333 0.887-0.333z" fill="#3886ce" fill-rule="nonzero" stroke="none" stroke-width="1" stroke-linecap="butt" stroke-linejoin="miter" stroke-miterlimit="10" stroke-dasharray="" stroke-dashoffset="0" font-family="none" font-weight="none" font-size="none" text-anchor="none" style="mix-blend-mode: normal" data-fill-palette-color="secondary"></path></g></g><g transform="matrix(1,0,0,1,29.331764404296877,46.423459512365135)"><svg viewBox="0 0 316.416 50.08553031609004" height="50.08553031609004" width="316.416"><g><svg viewBox="0 0 316.416 50.08553031609004" height="50.08553031609004" width="316.416"><g><svg viewBox="0 0 388.3975502527608 61.479499386503086" height="50.08553031609004" width="316.416"><g transform="matrix(1,0,0,1,0,8.496804907975463)"><svg viewBox="0 0 316.41600000000005 44.48588957055216" height="44.48588957055216" width="316.41600000000005"><g><svg viewBox="0 0 316.41600000000005 44.48588957055216" height="44.48588957055216" width="316.41600000000005"><g><svg viewBox="0 0 316.41600000000005 44.48588957055216" height="44.48588957055216" width="316.41600000000005"><g transform="matrix(1,0,0,1,0,0)"><svg width="316.41600000000005" viewBox="4.5 -40.400001525878906 293.3800048828125 41.25" height="44.48588957055216" data-palette-color="#202046"><path d="M35.6-28.25Q40.65-28.25 43.08-25.55 45.5-22.85 45.5-16.65L45.5-16.65 45.5 0 40.8 0 40.8-16.65Q40.8-20.6 39.53-22.23 38.25-23.85 34.95-23.85L34.95-23.85Q31.05-23.85 27.15-20.1L27.15-20.1Q27.35-18.7 27.35-16.65L27.35-16.65 27.35 0 22.65 0 22.65-16.65Q22.65-20.6 21.38-22.23 20.1-23.85 16.8-23.85L16.8-23.85Q13-23.85 9.2-20.45L9.2-20.45 9.2 0 4.5 0 4.5-27.65 9.2-27.65 9.2-24.7Q13.25-28.25 17.45-28.25L17.45-28.25Q20.8-28.25 22.95-27.13 25.1-26 26.2-23.55L26.2-23.55Q30.75-28.25 35.6-28.25L35.6-28.25ZM65.35 0.85Q60.95 0.85 57.87-1.07 54.8-3 53.25-6.33 51.7-9.65 51.7-13.8L51.7-13.8Q51.7-17.95 53.25-21.28 54.8-24.6 57.87-26.53 60.95-28.45 65.35-28.45L65.35-28.45Q69.75-28.45 72.82-26.53 75.9-24.6 77.42-21.28 78.95-17.95 78.95-13.8L78.95-13.8Q78.95-9.65 77.42-6.33 75.9-3 72.82-1.07 69.75 0.85 65.35 0.85L65.35 0.85ZM65.35-3.4Q69.5-3.4 71.77-6.3 74.05-9.2 74.05-13.8L74.05-13.8Q74.05-18.4 71.77-21.28 69.5-24.15 65.35-24.15L65.35-24.15Q61.2-24.15 58.9-21.28 56.6-18.4 56.6-13.8L56.6-13.8Q56.6-9.2 58.9-6.3 61.2-3.4 65.35-3.4L65.35-3.4ZM104.25-27.65L109.15-27.65 98.7 0.45 93.3 0.45 82.75-27.65 87.65-27.65 96-4.75 104.25-27.65ZM114.64-32.85L114.64-40.4 119.34-40.4 119.34-32.85 114.64-32.85ZM114.64 0L114.64-27.65 119.34-27.65 119.34 0 114.64 0ZM131.54-13.45Q131.64-8.85 133.84-6.1 136.04-3.35 140.84-3.35L140.84-3.35Q144.49-3.35 148.84-5.4L148.84-5.4 150.29-1.5Q145.74 0.85 140.44 0.85L140.44 0.85Q136.04 0.85 132.94-1 129.84-2.85 128.24-6.15 126.64-9.45 126.64-13.85L126.64-13.85Q126.64-18.5 128.32-21.78 129.99-25.05 132.84-26.75 135.69-28.45 139.24-28.45L139.24-28.45Q144.69-28.45 147.79-25.05 150.89-21.65 150.89-15.3L150.89-15.3 150.89-13.45 131.54-13.45ZM139.24-24.25Q133.04-24.25 131.84-17.4L131.84-17.4 145.94-17.4Q145.69-20.9 144.04-22.58 142.39-24.25 139.24-24.25L139.24-24.25ZM188.69-28.25Q193.74-28.25 196.16-25.55 198.59-22.85 198.59-16.65L198.59-16.65 198.59 0 193.89 0 193.89-16.65Q193.89-20.6 192.61-22.23 191.34-23.85 188.04-23.85L188.04-23.85Q184.14-23.85 180.24-20.1L180.24-20.1Q180.44-18.7 180.44-16.65L180.44-16.65 180.44 0 175.74 0 175.74-16.65Q175.74-20.6 174.46-22.23 173.19-23.85 169.89-23.85L169.89-23.85Q166.09-23.85 162.29-20.45L162.29-20.45 162.29 0 157.59 0 157.59-27.65 162.29-27.65 162.29-24.7Q166.34-28.25 170.54-28.25L170.54-28.25Q173.89-28.25 176.04-27.13 178.19-26 179.29-23.55L179.29-23.55Q183.84-28.25 188.69-28.25L188.69-28.25ZM214.99-27.65Q219.39-27.65 221.69-26.18 223.99-24.7 224.74-22.23 225.49-19.75 225.49-16L225.49-16 225.49 0 220.79 0 220.79-2.75Q218.89-0.95 216.99-0.15 215.09 0.65 212.89 0.65L212.89 0.65Q210.29 0.65 208.19-0.48 206.09-1.6 204.86-3.73 203.64-5.85 203.64-8.75L203.64-8.75Q203.64-13.25 206.44-15.73 209.24-18.2 213.99-18.2L213.99-18.2Q217.74-18.2 220.74-16.55L220.74-16.55Q220.69-19 220.24-20.45 219.79-21.9 218.39-22.68 216.99-23.45 214.24-23.45L214.24-23.45 210.54-23.45 210.54-27.65 214.99-27.65ZM213.54-3.4Q215.24-3.4 217.11-4.2 218.99-5 220.79-6.6L220.79-6.6 220.79-12.9Q217.99-14.3 214.69-14.3L214.69-14.3Q212.04-14.3 210.24-13.03 208.44-11.75 208.44-8.75L208.44-8.75Q208.44-5.95 209.96-4.67 211.49-3.4 213.54-3.4L213.54-3.4ZM246.38-28.25Q251.48-28.25 253.96-25.55 256.43-22.85 256.43-16.65L256.43-16.65 256.43 0 251.73 0 251.73-16.65Q251.73-20.55 250.41-22.2 249.08-23.85 245.73-23.85L245.73-23.85Q241.83-23.85 237.93-20.45L237.93-20.45 237.93 0 233.23 0 233.23-27.65 237.93-27.65 237.93-24.7Q242.03-28.25 246.38-28.25L246.38-28.25ZM265.18-32.85L265.18-40.4 269.88-40.4 269.88-32.85 265.18-32.85ZM265.18 0L265.18-27.65 269.88-27.65 269.88 0 265.18 0ZM287.38-27.65Q291.78-27.65 294.08-26.18 296.38-24.7 297.13-22.23 297.88-19.75 297.88-16L297.88-16 297.88 0 293.18 0 293.18-2.75Q291.28-0.95 289.38-0.15 287.48 0.65 285.28 0.65L285.28 0.65Q282.68 0.65 280.58-0.48 278.48-1.6 277.25-3.73 276.03-5.85 276.03-8.75L276.03-8.75Q276.03-13.25 278.83-15.73 281.63-18.2 286.38-18.2L286.38-18.2Q290.13-18.2 293.13-16.55L293.13-16.55Q293.08-19 292.63-20.45 292.18-21.9 290.78-22.68 289.38-23.45 286.63-23.45L286.63-23.45 282.93-23.45 282.93-27.65 287.38-27.65ZM285.93-3.4Q287.63-3.4 289.5-4.2 291.38-5 293.18-6.6L293.18-6.6 293.18-12.9Q290.38-14.3 287.08-14.3L287.08-14.3Q284.43-14.3 282.63-13.03 280.83-11.75 280.83-8.75L280.83-8.75Q280.83-5.95 282.35-4.67 283.88-3.4 285.93-3.4L285.93-3.4Z" opacity="1" transform="matrix(1,0,0,1,0,0)" fill="#202046" class="undefined-text-0" data-fill-palette-color="primary" id="text-0"></path></svg></g></svg></g></svg></g></svg></g><g transform="matrix(1,0,0,1,326.9180508662577,0)"><svg viewBox="0 0 61.479499386503086 61.479499386503086" height="61.479499386503086" width="61.479499386503086"><g><svg xmlns="http://www.w3.org/2000/svg" xmlns:xlink="http://www.w3.org/1999/xlink" version="1.1" x="0" y="0" viewBox="0 0 100 100" style="enable-background:new 0 0 100 100;" xml:space="preserve" height="61.479499386503086" width="61.479499386503086" class="icon-icon-0" data-fill-palette-color="accent" id="icon-0"><path d="M87.427 25H75.086L87.5 12.549 75.232 0H57.837l12.464 12.451L57.531 25H42.773l12.684-12.451L42.92 0H25.244l12.451 12.451L24.927 25H12.402l12.695-12.451L12.549 0H0v100h100V0H87.744L100 12.5 87.427 25zM87.5 87.365h-75v-12.5h75V87.365zM87.5 62.5h-75V50h75V62.5z" fill="#f95b35" data-fill-palette-color="accent"></path></svg></g></svg></g></svg></g></svg></g></svg></g></svg></g><defs></defs></svg><rect width="375.07952880859375" height="142.9324493408203" fill="none" stroke="none" visibility="hidden"></rect></g></svg></g></svg>